<?xml version="1.0" encoding="utf-8"?>
<!-- Generator: Adobe Illustrator 26.0.0, SVG Export Plug-In . SVG Version: 6.00 Build 0)  -->
<svg version="1.1" id="图层_1" xmlns="http://www.w3.org/2000/svg" xmlns:xlink="http://www.w3.org/1999/xlink" x="0px" y="0px"
	 viewBox="0 0 110.4 50" style="enable-background:new 0 0 110.4 50;" xml:space="preserve">
<style type="text/css">
	.st0{fill:#00A6E9;}
</style>
<g>
	<polygon class="st0" points="14.6,8.8 0.1,18.9 0.1,15 14.6,4.8 	"/>
	<polygon class="st0" points="15.7,27 1.8,19.1 4.9,17 19.2,24.8 	"/>
	<polygon class="st0" points="5.2,35.4 19.2,26 19.2,30 5.2,39.5 	"/>
	<polygon class="st0" points="5.2,41.1 19.2,31.7 19.2,35.7 5.2,45.2 	"/>
	<polygon class="st0" points="0.1,36.7 0.1,19.5 4,22.3 4,39.5 	"/>
</g>
<g>
	<path class="st0" d="M39.7,23c0,0.7-0.2,1.4-0.7,1.9s-1.1,0.8-1.9,0.8h-7.9v-2h7.9c0.3,0,0.4-0.2,0.4-0.6s-0.1-0.6-0.4-0.6h-5.7
		c-0.8,0-1.4-0.3-1.9-0.8s-0.7-1.1-0.7-1.9c0-0.7,0.2-1.4,0.7-1.9s1.1-0.8,1.9-0.8h7.9v2h-8c-0.3,0-0.4,0.2-0.4,0.7
		c0,0.4,0.1,0.6,0.4,0.6h5.8c0.8,0,1.4,0.3,1.9,0.8C39.5,21.7,39.7,22.3,39.7,23z"/>
	<path class="st0" d="M52.5,20c0,0.8-0.2,1.4-0.7,2s-1.1,0.9-1.9,0.9h-6.8v2.8H41V17h8.9c0.8,0,1.4,0.3,1.9,0.9S52.5,19.2,52.5,20z
		 M50.4,20c0-0.6-0.2-0.9-0.5-0.9h-6.8v1.8h6.8C50.2,20.9,50.4,20.6,50.4,20z"/>
	<path class="st0" d="M63.6,19.1h-7.7v1.3h7.2v2h-7.2v1.3h7.7v2h-9.8V17h9.8V19.1L63.6,19.1z"/>
	<path class="st0" d="M75,25.7h-7.1c-0.8,0-1.5-0.3-2.1-0.8s-0.9-1.2-0.9-2v-3.2c0-0.8,0.3-1.4,0.9-2c0.6-0.5,1.3-0.8,2.1-0.8H75v2
		h-7.1c-0.6,0-0.9,0.2-0.9,0.7V23c0,0.5,0.3,0.7,0.9,0.7H75V25.7z"/>
	<path class="st0" d="M86.7,19.1h-4.2v6.6h-2.1v-6.6h-4.2v-2h10.4L86.7,19.1L86.7,19.1z"/>
	<path class="st0" d="M98.6,25.7h-2.9l-4.6-4.9h5.5c0.4,0,0.6-0.3,0.6-0.9S97,19,96.6,19h-6.7v6.6h-2.1V17h8.9
		c0.8,0,1.5,0.3,1.9,0.9s0.7,1.2,0.7,2s-0.2,1.5-0.7,2c-0.5,0.6-1.1,0.9-1.9,0.9h-0.8L98.6,25.7z"/>
	<path class="st0" d="M110.4,19.1h-7.7v1.3h7.2v2h-7.2v1.3h7.7v2h-9.8V17h9.8V19.1L110.4,19.1z"/>
</g>
<g>
	<path class="st0" d="M32.8,31.6c0,0.3-0.1,0.6-0.2,0.9c-0.1,0.3-0.3,0.5-0.6,0.6c-0.3,0.1-0.5,0.2-0.9,0.2h-1v1.9h-0.8v-5.3h1.8
		c0.3,0,0.6,0.1,0.9,0.2s0.5,0.3,0.6,0.6C32.7,31,32.8,31.3,32.8,31.6z M31.9,31.6c0-0.3-0.1-0.6-0.3-0.7s-0.4-0.3-0.7-0.3h-0.8v2
		h0.8c0.3,0,0.6-0.1,0.7-0.3S31.9,31.9,31.9,31.6z"/>
	<path class="st0" d="M38.9,33.4h-2.7c0,0.4,0.1,0.7,0.3,0.9s0.4,0.3,0.8,0.3c0.2,0,0.4,0,0.5-0.1s0.2-0.2,0.3-0.4l0.7,0.3
		c-0.2,0.6-0.7,0.9-1.5,0.9c-0.4,0-0.7-0.1-1-0.3s-0.5-0.4-0.6-0.7c-0.2-0.3-0.3-0.7-0.3-1.1c0-0.4,0.1-0.8,0.2-1.1
		c0.2-0.3,0.4-0.5,0.6-0.7c0.3-0.2,0.6-0.3,0.9-0.3c0.3,0,0.7,0.1,0.9,0.2c0.3,0.2,0.5,0.4,0.6,0.7c0.1,0.3,0.2,0.7,0.2,1.1
		C38.9,33.3,38.9,33.4,38.9,33.4z M36.2,32.9h1.9c0-0.3-0.1-0.6-0.3-0.8s-0.4-0.3-0.6-0.3c-0.2,0-0.5,0.1-0.6,0.3
		C36.4,32.3,36.3,32.5,36.2,32.9z"/>
	<path class="st0" d="M43.7,31.2V32c-0.1,0-0.1,0-0.3,0c-0.3,0-0.5,0.1-0.7,0.3s-0.3,0.5-0.3,0.8v2.2h-0.8v-3c0-0.3,0-0.6,0-0.9h0.8
		c0,0.2,0,0.4,0,0.6c0.1-0.2,0.3-0.4,0.5-0.5s0.4-0.2,0.6-0.2C43.6,31.2,43.7,31.2,43.7,31.2z"/>
	<path class="st0" d="M46.4,32.3c0-0.2,0.1-0.4,0.2-0.6c0.1-0.2,0.3-0.3,0.5-0.4s0.5-0.1,0.7-0.1c0.4,0,0.7,0.1,0.9,0.2
		s0.4,0.4,0.5,0.6l-0.6,0.3c-0.1-0.3-0.4-0.5-0.8-0.5c-0.2,0-0.4,0-0.5,0.1s-0.2,0.2-0.2,0.4s0.1,0.3,0.2,0.3
		c0.1,0.1,0.3,0.1,0.6,0.2c0.4,0.1,0.8,0.2,1,0.4s0.3,0.5,0.3,0.8c0,0.2-0.1,0.5-0.2,0.6c-0.1,0.2-0.3,0.3-0.5,0.4
		c-0.2,0.1-0.5,0.2-0.8,0.2c-0.4,0-0.8-0.1-1-0.2c-0.3-0.2-0.4-0.4-0.5-0.7l0.6-0.3c0.1,0.4,0.4,0.6,0.9,0.6c0.2,0,0.4,0,0.5-0.1
		s0.2-0.2,0.2-0.4s-0.1-0.3-0.2-0.4c-0.1-0.1-0.4-0.2-0.7-0.2C46.8,33.3,46.4,33,46.4,32.3z"/>
	<path class="st0" d="M53.7,31.2c0.3,0,0.7,0.1,0.9,0.3c0.3,0.2,0.5,0.4,0.6,0.7c0.2,0.3,0.2,0.7,0.2,1.1c0,0.4-0.1,0.8-0.2,1.1
		c-0.2,0.3-0.4,0.5-0.6,0.7c-0.3,0.2-0.6,0.3-0.9,0.3c-0.3,0-0.7-0.1-0.9-0.3c-0.3-0.2-0.5-0.4-0.6-0.7C52,34.1,52,33.7,52,33.3
		c0-0.4,0.1-0.8,0.2-1.1c0.2-0.3,0.4-0.5,0.6-0.7C53,31.3,53.3,31.2,53.7,31.2z M53.7,31.8c-0.2,0-0.4,0.1-0.5,0.2
		c-0.1,0.1-0.3,0.3-0.4,0.5c-0.1,0.2-0.1,0.5-0.1,0.7s0,0.5,0.1,0.7s0.2,0.4,0.4,0.5s0.3,0.2,0.5,0.2s0.4-0.1,0.5-0.2
		s0.3-0.3,0.4-0.5s0.1-0.5,0.1-0.7s0-0.5-0.1-0.7s-0.2-0.4-0.4-0.5C54.1,31.9,53.9,31.8,53.7,31.8z"/>
	<path class="st0" d="M61.7,32.6v2.6h-0.8v-2.4c0-0.6-0.3-0.9-0.8-0.9c-0.3,0-0.5,0.1-0.7,0.3s-0.3,0.5-0.3,0.8v2.2h-0.8v-3
		c0-0.4,0-0.7,0-0.9H59c0,0.2,0,0.4,0,0.6c0.3-0.5,0.7-0.7,1.3-0.7c0.4,0,0.7,0.1,1,0.4C61.6,31.8,61.7,32.2,61.7,32.6z"/>
	<path class="st0" d="M68.1,34.3c0,0.4,0,0.7,0,0.9h-0.7c0-0.1,0-0.3,0-0.6c-0.1,0.2-0.3,0.4-0.5,0.5s-0.5,0.2-0.7,0.2
		c-0.3,0-0.6-0.1-0.8-0.3c-0.2-0.2-0.4-0.4-0.6-0.7c-0.1-0.3-0.2-0.7-0.2-1.1s0.1-0.8,0.2-1.1s0.3-0.5,0.6-0.7
		c0.2-0.2,0.5-0.3,0.8-0.3s0.5,0.1,0.7,0.2s0.4,0.3,0.5,0.5c0-0.3,0-0.5,0-0.6h0.7c0,0.2,0,0.5,0,0.9V34.3z M67.3,33.2
		c0-0.3,0-0.5-0.1-0.7S67,32.1,66.8,32c-0.2-0.1-0.3-0.2-0.5-0.2s-0.4,0.1-0.5,0.2c-0.1,0.1-0.3,0.3-0.4,0.5s-0.1,0.5-0.1,0.7
		s0,0.5,0.1,0.7s0.2,0.4,0.4,0.5c0.2,0.1,0.3,0.2,0.5,0.2s0.4-0.1,0.5-0.2c0.2-0.1,0.3-0.3,0.4-0.5S67.3,33.5,67.3,33.2z"/>
	<path class="st0" d="M71.9,29.7v5.5h-0.8v-5.5H71.9z"/>
	<path class="st0" d="M78.8,31.3c0-0.3,0.1-0.6,0.2-0.8c0.1-0.2,0.3-0.4,0.6-0.5c0.3-0.1,0.6-0.2,0.9-0.2c0.4,0,0.8,0.1,1.1,0.3
		c0.3,0.2,0.5,0.5,0.6,0.8l-0.7,0.3c-0.1-0.2-0.2-0.4-0.4-0.5c-0.2-0.1-0.4-0.2-0.7-0.2c-0.3,0-0.5,0.1-0.7,0.2s-0.2,0.3-0.2,0.5
		s0,0.3,0.1,0.4s0.2,0.2,0.3,0.2c0.1,0.1,0.4,0.1,0.6,0.2c0.6,0.1,1,0.3,1.3,0.6s0.4,0.6,0.4,1.1c0,0.3-0.1,0.6-0.2,0.8
		s-0.4,0.4-0.7,0.6c-0.3,0.1-0.6,0.2-1,0.2c-0.5,0-0.9-0.1-1.2-0.3c-0.3-0.2-0.5-0.5-0.7-0.9l0.7-0.3c0.1,0.3,0.2,0.5,0.4,0.6
		c0.2,0.1,0.5,0.2,0.8,0.2s0.6-0.1,0.7-0.2c0.2-0.1,0.3-0.3,0.3-0.6c0-0.2-0.1-0.4-0.3-0.6c-0.2-0.1-0.5-0.3-0.9-0.3
		c-0.5-0.1-0.9-0.3-1.2-0.5C79,32,78.8,31.7,78.8,31.3z"/>
	<path class="st0" d="M86.2,31.9v2.2c0,0.3,0.2,0.5,0.5,0.5c0.2,0,0.3,0,0.4-0.1v0.6c-0.2,0.1-0.4,0.1-0.5,0.1
		c-0.3,0-0.6-0.1-0.8-0.3s-0.4-0.4-0.4-0.8v-2.2h-0.6v-0.6h0.6v-0.9h0.8v0.9h0.9v0.6C87.1,31.9,86.2,31.9,86.2,31.9z"/>
	<path class="st0" d="M92.5,35.2c0-0.1,0-0.3,0-0.6c-0.3,0.5-0.7,0.7-1.3,0.7c-0.4,0-0.7-0.1-1-0.4c-0.2-0.2-0.4-0.6-0.4-1v-2.6h0.8
		v2.4c0,0.6,0.3,0.9,0.8,0.9c0.3,0,0.5-0.1,0.7-0.3s0.3-0.5,0.3-0.8v-2.2h0.8v3c0,0.4,0,0.7,0,0.9C93.2,35.2,92.5,35.2,92.5,35.2z"
		/>
	<path class="st0" d="M98.9,35.2c0-0.1,0-0.3,0-0.6c-0.1,0.2-0.3,0.4-0.5,0.5s-0.5,0.2-0.7,0.2c-0.3,0-0.6-0.1-0.8-0.3
		c-0.2-0.2-0.4-0.4-0.6-0.7c-0.1-0.3-0.2-0.7-0.2-1.1c0-0.4,0.1-0.8,0.2-1.1s0.3-0.5,0.6-0.7c0.2-0.2,0.5-0.3,0.8-0.3
		s0.5,0.1,0.7,0.2s0.4,0.3,0.5,0.5v-2.1h0.8v4.6c0,0.3,0,0.6,0,0.9C99.6,35.2,98.9,35.2,98.9,35.2z M98.8,33.2c0-0.3,0-0.5-0.1-0.7
		s-0.2-0.4-0.4-0.5s-0.3-0.2-0.5-0.2s-0.4,0.1-0.5,0.2c-0.1,0.1-0.3,0.3-0.4,0.5s-0.1,0.5-0.1,0.7s0,0.5,0.1,0.7s0.2,0.4,0.4,0.5
		c0.2,0.1,0.3,0.2,0.5,0.2s0.4-0.1,0.5-0.2s0.3-0.3,0.4-0.5C98.8,33.8,98.8,33.5,98.8,33.2z"/>
	<path class="st0" d="M103,29.8c0.1,0,0.3,0,0.3,0.1c0.1,0.1,0.1,0.2,0.1,0.4c0,0.1,0,0.3-0.1,0.4s-0.2,0.1-0.4,0.1
		c-0.1,0-0.3,0-0.4-0.1s-0.1-0.2-0.1-0.4c0-0.2,0-0.3,0.1-0.4C102.8,29.9,102.9,29.8,103,29.8z M103.4,31.3v3.9h-0.8v-3.9
		C102.6,31.3,103.4,31.3,103.4,31.3z"/>
	<path class="st0" d="M108.1,31.2c0.3,0,0.7,0.1,0.9,0.3s0.5,0.4,0.6,0.7c0.2,0.3,0.2,0.7,0.2,1.1c0,0.4-0.1,0.8-0.2,1.1
		c-0.2,0.3-0.4,0.5-0.6,0.7c-0.3,0.2-0.6,0.3-0.9,0.3s-0.7-0.1-0.9-0.3c-0.3-0.2-0.5-0.4-0.6-0.7c-0.2-0.3-0.2-0.7-0.2-1.1
		c0-0.4,0.1-0.8,0.2-1.1c0.2-0.3,0.4-0.5,0.6-0.7C107.4,31.3,107.7,31.2,108.1,31.2z M108.1,31.8c-0.2,0-0.4,0.1-0.5,0.2
		c-0.2,0.1-0.3,0.3-0.4,0.5s-0.1,0.5-0.1,0.7s0,0.5,0.1,0.7s0.2,0.4,0.4,0.5c0.2,0.1,0.3,0.2,0.5,0.2s0.4-0.1,0.5-0.2
		s0.3-0.3,0.4-0.5s0.1-0.5,0.1-0.7s0-0.5-0.1-0.7s-0.2-0.4-0.4-0.5C108.5,31.9,108.3,31.8,108.1,31.8z"/>
</g>
</svg>
