<?xml version="1.0" encoding="utf-8"?>
<!-- Generator: Adobe Illustrator 17.0.0, SVG Export Plug-In . SVG Version: 6.00 Build 0)  -->
<!DOCTYPE svg PUBLIC "-//W3C//DTD SVG 1.1//EN" "http://www.w3.org/Graphics/SVG/1.1/DTD/svg11.dtd">
<svg version="1.1" id="图层_1" xmlns="http://www.w3.org/2000/svg" xmlns:xlink="http://www.w3.org/1999/xlink" x="0px" y="0px"
	 width="226.772px" height="85.039px" viewBox="0 0 226.772 85.039" enable-background="new 0 0 226.772 85.039"
	 xml:space="preserve">
<g>
	<polygon fill="#00A6E9" points="30.167,9.07 0.167,30.035 0.167,21.869 30.167,0.904 	"/>
	<polygon fill="#00A6E9" points="32.436,46.564 3.702,30.442 10.065,26.102 39.61,42.087 	"/>
	<polygon fill="#00A6E9" points="10.712,63.955 39.669,44.503 39.678,52.86 10.72,72.313 	"/>
	<polygon fill="#00A6E9" points="10.712,75.75 39.669,56.298 39.678,64.656 10.72,84.108 	"/>
	<polygon fill="#00A6E9" points="0.167,66.595 0.167,31.21 8.167,36.928 8.167,72.313 	"/>
</g>
<g>
	<path fill="#00A6E9" d="M79.752,38.462c0,1.503-0.479,2.786-1.438,3.85c-1.032,1.11-2.336,1.665-3.909,1.665H58.03v-4.175h16.374
		c0.614,0,0.922-0.446,0.922-1.339c0-0.893-0.308-1.339-0.922-1.339H62.493c-1.574,0-2.877-0.557-3.909-1.67
		c-0.984-1.044-1.475-2.319-1.475-3.827c0-1.507,0.503-2.806,1.512-3.896c1.008-1.09,2.299-1.635,3.873-1.635h16.374v4.175H62.458
		c-0.616,0-0.924,0.452-0.924,1.356c0,0.882,0.308,1.322,0.924,1.322h11.936c1.577,0,2.882,0.555,3.917,1.665
		C79.272,35.675,79.752,36.959,79.752,38.462z"/>
	<path fill="#00A6E9" d="M106.083,32.147c0,1.601-0.467,2.969-1.401,4.105c-1.008,1.275-2.336,1.913-3.983,1.913h-13.94v5.81h-4.425
		V26.094h18.366c1.647,0,2.975,0.638,3.983,1.914C105.616,29.167,106.083,30.547,106.083,32.147z M101.657,32.147
		c0-1.252-0.319-1.878-0.958-1.878h-13.94v3.722h13.94C101.338,33.991,101.657,33.377,101.657,32.147z"/>
	<path fill="#00A6E9" d="M128.911,30.269H113.09v2.679h14.789v4.175H113.09v2.679h15.784v4.175h-20.209V26.094h20.247V30.269z"/>
	<path fill="#00A6E9" d="M152.366,43.976h-14.678c-1.721,0-3.184-0.538-4.389-1.615c-1.205-1.076-1.807-2.424-1.807-4.045v-6.562
		c0-1.62,0.602-2.969,1.807-4.045c1.205-1.076,2.667-1.614,4.389-1.614h14.678v4.175h-14.678c-1.18,0-1.77,0.497-1.77,1.49v6.551
		c0,0.994,0.59,1.491,1.77,1.491h14.678V43.976z"/>
	<path fill="#00A6E9" d="M176.485,30.269h-8.556v13.707h-4.426V30.269h-8.556v-4.175h21.537V30.269z"/>
	<path fill="#00A6E9" d="M201.084,43.976h-6.048l-9.478-10.02h11.396c0.811,0,1.217-0.614,1.217-1.844
		c0-1.229-0.406-1.844-1.217-1.844h-13.719v13.707h-4.425V26.094h18.402c1.697,0,3.036,0.626,4.02,1.878
		c0.909,1.137,1.364,2.517,1.364,4.14c0,1.624-0.455,3.004-1.364,4.14c-0.984,1.252-2.323,1.878-4.02,1.878h-1.696L201.084,43.976z"
		/>
	<path fill="#00A6E9" d="M225.423,30.269h-15.821v2.679h14.789v4.175h-14.789v2.679h15.784v4.175h-20.209V26.094h20.247V30.269z"/>
</g>
<g>
	<path fill="#00A6E9" d="M65.423,56.125c0,0.686-0.145,1.293-0.435,1.823c-0.29,0.53-0.696,0.939-1.219,1.229
		c-0.523,0.29-1.127,0.434-1.813,0.434H59.98v3.926h-1.727V52.64h3.704c0.686,0,1.29,0.145,1.813,0.434
		c0.522,0.289,0.929,0.696,1.219,1.222C65.278,54.821,65.423,55.43,65.423,56.125z M63.67,56.125c0-0.667-0.18-1.182-0.541-1.542
		s-0.87-0.541-1.529-0.541H59.98v4.167h1.621c0.659,0,1.168-0.181,1.529-0.541S63.67,56.793,63.67,56.125z"/>
	<path fill="#00A6E9" d="M77.944,59.93h-5.469c0.043,0.792,0.261,1.402,0.652,1.83c0.391,0.427,0.907,0.641,1.548,0.641
		c0.475,0,0.85-0.102,1.127-0.307c0.277-0.205,0.494-0.512,0.652-0.921l1.344,0.641c-0.509,1.264-1.546,1.896-3.11,1.896
		c-0.782,0-1.463-0.176-2.042-0.527c-0.58-0.352-1.026-0.843-1.338-1.476c-0.312-0.632-0.468-1.362-0.468-2.189
		c0-0.819,0.156-1.547,0.468-2.184c0.312-0.636,0.742-1.13,1.292-1.482c0.549-0.352,1.162-0.527,1.838-0.527
		c0.721,0,1.347,0.171,1.878,0.514c0.531,0.343,0.94,0.83,1.226,1.462c0.286,0.632,0.428,1.367,0.428,2.203
		C77.97,59.646,77.962,59.788,77.944,59.93z M72.501,58.729h3.835c-0.07-0.686-0.268-1.206-0.593-1.562
		c-0.325-0.356-0.765-0.534-1.318-0.534c-0.509,0-0.936,0.183-1.278,0.547C72.804,57.545,72.588,58.061,72.501,58.729z"/>
	<path fill="#00A6E9" d="M87.947,55.39v1.469c-0.132-0.027-0.308-0.04-0.527-0.04c-0.606,0-1.092,0.196-1.456,0.587
		c-0.365,0.392-0.547,0.948-0.547,1.669v4.46h-1.608v-6.183c0-0.703-0.022-1.322-0.066-1.856h1.397
		c0.043,0.312,0.07,0.757,0.079,1.335c0.237-0.49,0.553-0.863,0.949-1.122s0.839-0.387,1.331-0.387
		C87.71,55.324,87.859,55.346,87.947,55.39z"/>
	<path fill="#00A6E9" d="M93.417,57.647c0-0.454,0.121-0.856,0.362-1.208c0.242-0.352,0.582-0.625,1.021-0.821
		c0.439-0.196,0.936-0.293,1.489-0.293c0.773,0,1.417,0.153,1.931,0.46s0.846,0.728,0.995,1.262l-1.239,0.574
		c-0.211-0.694-0.751-1.042-1.621-1.042c-0.422,0-0.751,0.089-0.989,0.267c-0.237,0.178-0.355,0.427-0.355,0.748
		c0,0.312,0.123,0.55,0.369,0.714s0.686,0.296,1.318,0.394c0.922,0.134,1.603,0.403,2.042,0.808
		c0.439,0.405,0.659,0.968,0.659,1.689c0,0.499-0.13,0.937-0.389,1.315c-0.259,0.378-0.618,0.672-1.074,0.881
		c-0.457,0.209-0.98,0.313-1.568,0.313c-0.861,0-1.568-0.169-2.122-0.507s-0.922-0.819-1.107-1.442l1.226-0.574
		c0.281,0.846,0.922,1.269,1.924,1.269c0.475,0,0.848-0.1,1.12-0.3c0.272-0.201,0.409-0.483,0.409-0.848
		c0-0.392-0.13-0.683-0.389-0.875c-0.259-0.191-0.731-0.336-1.417-0.434C94.282,59.73,93.417,58.947,93.417,57.647z"/>
	<path fill="#00A6E9" d="M108.521,55.324c0.712,0,1.349,0.176,1.911,0.527s1.002,0.846,1.318,1.482
		c0.316,0.637,0.475,1.364,0.475,2.184c0,0.828-0.158,1.558-0.475,2.189c-0.316,0.632-0.755,1.124-1.318,1.476
		s-1.199,0.527-1.911,0.527c-0.72,0-1.362-0.176-1.924-0.527c-0.563-0.352-1.002-0.843-1.318-1.476
		c-0.316-0.632-0.474-1.362-0.474-2.189c0-0.819,0.158-1.547,0.474-2.184c0.316-0.636,0.756-1.13,1.318-1.482
		C107.159,55.5,107.8,55.324,108.521,55.324z M108.521,56.632c-0.413,0-0.777,0.12-1.094,0.36s-0.563,0.579-0.738,1.015
		c-0.176,0.437-0.263,0.939-0.263,1.509s0.087,1.073,0.263,1.509s0.422,0.774,0.738,1.015s0.681,0.36,1.094,0.36
		s0.775-0.12,1.087-0.36s0.556-0.579,0.731-1.015s0.264-0.939,0.264-1.509s-0.088-1.073-0.264-1.509
		c-0.176-0.436-0.419-0.774-0.731-1.015S108.934,56.632,108.521,56.632z"/>
	<path fill="#00A6E9" d="M124.995,58.235v5.301h-1.608v-5.047c0-1.193-0.553-1.79-1.661-1.79c-0.632,0-1.133,0.214-1.502,0.641
		s-0.554,1.006-0.554,1.736v4.46h-1.621v-6.183c0-0.81-0.018-1.429-0.053-1.856h1.424c0.053,0.33,0.083,0.766,0.092,1.309
		c0.58-0.988,1.507-1.482,2.781-1.482c0.843,0,1.504,0.253,1.983,0.761C124.756,56.592,124.995,57.309,124.995,58.235z"/>
	<path fill="#00A6E9" d="M138.201,61.68c0,0.81,0.018,1.429,0.053,1.856h-1.45c-0.026-0.178-0.048-0.619-0.066-1.322
		c-0.29,0.48-0.657,0.85-1.101,1.108s-0.956,0.387-1.535,0.387c-0.615,0-1.178-0.176-1.687-0.527
		c-0.51-0.352-0.912-0.846-1.206-1.482s-0.441-1.364-0.441-2.183c0-0.819,0.147-1.547,0.441-2.184
		c0.294-0.636,0.696-1.13,1.206-1.482c0.509-0.352,1.072-0.527,1.687-0.527c0.58,0,1.091,0.129,1.535,0.387s0.811,0.627,1.101,1.108
		c0.018-0.686,0.04-1.126,0.066-1.322h1.45c-0.035,0.427-0.053,1.046-0.053,1.856V61.68z M136.58,59.517
		c0-0.57-0.088-1.073-0.264-1.509c-0.176-0.436-0.421-0.774-0.738-1.015s-0.681-0.36-1.094-0.36c-0.404,0-0.764,0.12-1.081,0.36
		s-0.564,0.579-0.745,1.015c-0.18,0.437-0.27,0.939-0.27,1.509s0.09,1.073,0.27,1.509s0.428,0.774,0.745,1.015
		s0.677,0.36,1.081,0.36c0.413,0,0.778-0.12,1.094-0.36s0.562-0.579,0.738-1.015S136.58,60.087,136.58,59.517z"/>
	<path fill="#00A6E9" d="M146.043,52.173v11.363h-1.621V52.173H146.043z"/>
	<path fill="#00A6E9" d="M160.343,55.537c0-0.605,0.143-1.139,0.429-1.602c0.285-0.463,0.7-0.824,1.245-1.082
		c0.545-0.258,1.182-0.388,1.911-0.388c0.914,0,1.674,0.192,2.28,0.574c0.606,0.383,1.023,0.931,1.252,1.643l-1.397,0.667
		c-0.167-0.454-0.417-0.796-0.751-1.028s-0.782-0.347-1.344-0.347c-0.624,0-1.094,0.129-1.41,0.387s-0.475,0.627-0.475,1.108
		c0,0.312,0.068,0.568,0.205,0.768s0.358,0.37,0.666,0.507c0.308,0.138,0.733,0.26,1.278,0.367c1.212,0.231,2.087,0.614,2.623,1.148
		c0.536,0.534,0.804,1.269,0.804,2.203c0,0.624-0.16,1.182-0.481,1.676s-0.771,0.879-1.351,1.155
		c-0.58,0.276-1.239,0.414-1.977,0.414c-1.01,0-1.854-0.213-2.53-0.641c-0.677-0.427-1.133-1.037-1.371-1.83l1.41-0.667
		c0.167,0.534,0.461,0.939,0.883,1.215c0.422,0.276,0.954,0.414,1.595,0.414c0.668,0,1.182-0.147,1.542-0.44
		c0.36-0.294,0.541-0.712,0.541-1.255c0-0.499-0.178-0.892-0.534-1.182c-0.356-0.289-0.973-0.523-1.852-0.701
		c-1.099-0.213-1.905-0.572-2.419-1.075C160.6,57.044,160.343,56.374,160.343,55.537z"/>
	<path fill="#00A6E9" d="M175.447,56.806v4.447c0,0.721,0.352,1.082,1.054,1.082c0.316,0,0.58-0.036,0.791-0.107v1.295
		c-0.352,0.125-0.729,0.187-1.133,0.187c-0.721,0-1.29-0.211-1.707-0.634c-0.417-0.423-0.626-1.004-0.626-1.743v-4.527h-1.146
		v-1.309h1.146v-1.949h1.621v1.949h1.845v1.309H175.447z"/>
	<path fill="#00A6E9" d="M188.534,63.536c-0.044-0.24-0.07-0.677-0.079-1.309c-0.589,0.988-1.516,1.482-2.781,1.482
		c-0.844,0-1.507-0.256-1.99-0.768c-0.483-0.512-0.725-1.222-0.725-2.13v-5.314h1.621v5.047c0,1.193,0.554,1.79,1.661,1.79
		c0.624,0,1.122-0.216,1.496-0.648c0.374-0.432,0.56-1.012,0.56-1.742v-4.447h1.608v6.183c0,0.81,0.018,1.429,0.053,1.856H188.534z"
		/>
	<path fill="#00A6E9" d="M201.806,63.536c-0.044-0.24-0.07-0.677-0.079-1.309c-0.281,0.472-0.644,0.836-1.087,1.095
		s-0.956,0.387-1.535,0.387c-0.624,0-1.191-0.176-1.7-0.527c-0.51-0.352-0.912-0.846-1.206-1.482s-0.441-1.364-0.441-2.183
		c0-0.819,0.147-1.547,0.441-2.184c0.294-0.636,0.696-1.13,1.206-1.482c0.509-0.352,1.076-0.527,1.7-0.527
		c0.527,0,0.999,0.106,1.417,0.32s0.767,0.525,1.048,0.935v-4.406h1.608v9.507c0,0.703,0.022,1.322,0.066,1.856H201.806z
		 M201.569,59.517c0-0.57-0.088-1.073-0.264-1.509c-0.176-0.436-0.421-0.774-0.738-1.015s-0.681-0.36-1.094-0.36
		s-0.777,0.12-1.094,0.36s-0.563,0.579-0.738,1.015c-0.176,0.437-0.263,0.939-0.263,1.509s0.087,1.073,0.263,1.509
		s0.422,0.774,0.738,1.015s0.681,0.36,1.094,0.36s0.778-0.12,1.094-0.36s0.562-0.579,0.738-1.015S201.569,60.087,201.569,59.517z"/>
	<path fill="#00A6E9" d="M210.228,52.453c0.298,0,0.538,0.091,0.718,0.274s0.27,0.43,0.27,0.741c0,0.303-0.088,0.545-0.264,0.728
		s-0.417,0.273-0.725,0.273s-0.552-0.091-0.731-0.273c-0.18-0.183-0.271-0.425-0.271-0.728c0-0.311,0.092-0.558,0.277-0.741
		S209.929,52.453,210.228,52.453z M211.032,55.497v8.039h-1.621v-8.039H211.032z"/>
	<path fill="#00A6E9" d="M220.679,55.324c0.712,0,1.349,0.176,1.911,0.527s1.002,0.846,1.318,1.482
		c0.316,0.637,0.475,1.364,0.475,2.184c0,0.828-0.158,1.558-0.475,2.189c-0.316,0.632-0.755,1.124-1.318,1.476
		s-1.199,0.527-1.911,0.527c-0.72,0-1.362-0.176-1.924-0.527c-0.563-0.352-1.002-0.843-1.318-1.476
		c-0.316-0.632-0.474-1.362-0.474-2.189c0-0.819,0.158-1.547,0.474-2.184c0.316-0.636,0.756-1.13,1.318-1.482
		C219.317,55.5,219.959,55.324,220.679,55.324z M220.679,56.632c-0.413,0-0.777,0.12-1.094,0.36s-0.563,0.579-0.738,1.015
		c-0.176,0.437-0.263,0.939-0.263,1.509s0.087,1.073,0.263,1.509s0.422,0.774,0.738,1.015s0.681,0.36,1.094,0.36
		s0.775-0.12,1.087-0.36s0.556-0.579,0.731-1.015s0.264-0.939,0.264-1.509s-0.088-1.073-0.264-1.509
		c-0.176-0.436-0.419-0.774-0.731-1.015S221.092,56.632,220.679,56.632z"/>
</g>
<g>
</g>
<g>
</g>
<g>
</g>
<g>
</g>
<g>
</g>
<g>
</g>
<g>
</g>
<g>
</g>
<g>
</g>
<g>
</g>
<g>
</g>
<g>
</g>
<g>
</g>
<g>
</g>
<g>
</g>
</svg>
